<mxfile host="app.diagrams.net" modified="2023-02-21T10:01:51.303Z" agent="5.0 (Windows NT 10.0; Win64; x64) AppleWebKit/537.36 (KHTML, like Gecko) Chrome/83.0.4103.116 Safari/537.36" etag="qiNiOP6d31PUr4i0V2kp" version="20.8.21" type="github">
  <diagram name="Page-1" id="PGL8lKjOJwrJzX0if8dN">
    <mxGraphModel dx="1434" dy="764" grid="1" gridSize="10" guides="1" tooltips="1" connect="1" arrows="1" fold="1" page="1" pageScale="1" pageWidth="827" pageHeight="1169" math="0" shadow="0">
      <root>
        <mxCell id="0" />
        <mxCell id="1" parent="0" />
        <mxCell id="Hf-SrbPNDhJqVrpM_YPw-7" value="&lt;p style=&quot;margin:0px;margin-top:6px;text-align:center;&quot;&gt;&lt;b&gt;Produit&lt;/b&gt;&lt;/p&gt;&lt;hr&gt;&lt;p style=&quot;margin:0px;margin-left:8px;&quot;&gt;nom&lt;/p&gt;&lt;p style=&quot;margin:0px;margin-left:8px;&quot;&gt;IAN&lt;/p&gt;&lt;p style=&quot;margin:0px;margin-left:8px;&quot;&gt;prix&lt;/p&gt;&lt;p style=&quot;margin:0px;margin-left:8px;&quot;&gt;fabriquant&lt;/p&gt;&lt;p style=&quot;margin:0px;margin-left:8px;&quot;&gt;dateEntree&lt;/p&gt;" style="align=left;overflow=fill;html=1;dropTarget=0;glass=1;fillColor=none;" vertex="1" parent="1">
          <mxGeometry x="40" y="40" width="180" height="110" as="geometry" />
        </mxCell>
        <mxCell id="Hf-SrbPNDhJqVrpM_YPw-9" value="&lt;p style=&quot;margin:0px;margin-top:6px;text-align:center;&quot;&gt;&lt;b&gt;Client&lt;/b&gt;&lt;/p&gt;&lt;hr&gt;&lt;p style=&quot;margin:0px;margin-left:8px;&quot;&gt;nom&lt;/p&gt;&lt;p style=&quot;margin:0px;margin-left:8px;&quot;&gt;adressElectronique&lt;/p&gt;&lt;p style=&quot;margin:0px;margin-left:8px;&quot;&gt;mdp&lt;/p&gt;&lt;p style=&quot;margin:0px;margin-left:8px;&quot;&gt;adressePostale&lt;/p&gt;" style="align=left;overflow=fill;html=1;dropTarget=0;glass=1;fillColor=none;" vertex="1" parent="1">
          <mxGeometry x="730" y="40" width="180" height="110" as="geometry" />
        </mxCell>
        <mxCell id="Hf-SrbPNDhJqVrpM_YPw-10" value="&lt;p style=&quot;margin:0px;margin-top:6px;text-align:center;&quot;&gt;&lt;b&gt;&quot;enum&quot;&lt;/b&gt;&lt;/p&gt;&lt;p style=&quot;margin:0px;margin-top:6px;text-align:center;&quot;&gt;&lt;b&gt;Categorie&lt;/b&gt;&lt;/p&gt;&lt;hr&gt;&lt;p style=&quot;margin:0px;margin-left:8px;&quot;&gt;electronique&lt;/p&gt;&lt;p style=&quot;margin:0px;margin-left:8px;&quot;&gt;plastique&lt;/p&gt;&lt;p style=&quot;margin:0px;margin-left:8px;&quot;&gt;textile&lt;/p&gt;&lt;p style=&quot;margin:0px;margin-left:8px;&quot;&gt;bois&lt;/p&gt;" style="align=left;overflow=fill;html=1;dropTarget=0;glass=1;strokeWidth=1;fillStyle=solid;fillColor=none;" vertex="1" parent="1">
          <mxGeometry x="40" y="200" width="180" height="120" as="geometry" />
        </mxCell>
        <mxCell id="Hf-SrbPNDhJqVrpM_YPw-11" value="&lt;p style=&quot;margin:0px;margin-top:6px;text-align:center;&quot;&gt;&lt;b&gt;&quot;enum&quot;&lt;/b&gt;&lt;/p&gt;&lt;p style=&quot;margin:0px;margin-top:6px;text-align:center;&quot;&gt;&lt;b&gt;ClientType&lt;/b&gt;&lt;/p&gt;&lt;hr&gt;&lt;p style=&quot;margin:0px;margin-left:8px;&quot;&gt;ancientClient&lt;/p&gt;&lt;p style=&quot;margin:0px;margin-left:8px;&quot;&gt;moteurDeRecherche&lt;/p&gt;&lt;p style=&quot;margin:0px;margin-left:8px;&quot;&gt;reseauSociaux&lt;/p&gt;&lt;p style=&quot;margin:0px;margin-left:8px;&quot;&gt;partenariats&lt;/p&gt;" style="align=left;overflow=fill;html=1;dropTarget=0;glass=1;strokeWidth=1;fillStyle=solid;fillColor=none;" vertex="1" parent="1">
          <mxGeometry x="730" y="200" width="180" height="120" as="geometry" />
        </mxCell>
        <mxCell id="Hf-SrbPNDhJqVrpM_YPw-12" value="&lt;p style=&quot;margin:0px;margin-top:6px;text-align:center;&quot;&gt;&lt;b&gt;AdressePostale&lt;/b&gt;&lt;/p&gt;&lt;hr&gt;&lt;p style=&quot;margin:0px;margin-left:8px;&quot;&gt;numRue&lt;/p&gt;&lt;p style=&quot;margin:0px;margin-left:8px;&quot;&gt;codePostal&lt;/p&gt;&lt;p style=&quot;margin:0px;margin-left:8px;&quot;&gt;commune&lt;/p&gt;&lt;p style=&quot;margin:0px;margin-left:8px;&quot;&gt;pays&lt;/p&gt;" style="align=left;overflow=fill;html=1;dropTarget=0;glass=1;strokeWidth=1;fillStyle=solid;fillColor=none;" vertex="1" parent="1">
          <mxGeometry x="970" y="35" width="180" height="120" as="geometry" />
        </mxCell>
        <mxCell id="Hf-SrbPNDhJqVrpM_YPw-13" value="" style="endArrow=none;html=1;rounded=0;exitX=0.5;exitY=0;exitDx=0;exitDy=0;entryX=0.5;entryY=1;entryDx=0;entryDy=0;" edge="1" parent="1" source="Hf-SrbPNDhJqVrpM_YPw-11" target="Hf-SrbPNDhJqVrpM_YPw-9">
          <mxGeometry width="50" height="50" relative="1" as="geometry">
            <mxPoint x="780" y="200" as="sourcePoint" />
            <mxPoint x="830" y="150" as="targetPoint" />
          </mxGeometry>
        </mxCell>
        <mxCell id="Hf-SrbPNDhJqVrpM_YPw-14" value="" style="endArrow=none;html=1;rounded=0;exitX=0;exitY=0.5;exitDx=0;exitDy=0;entryX=1;entryY=0.5;entryDx=0;entryDy=0;" edge="1" parent="1" source="Hf-SrbPNDhJqVrpM_YPw-12" target="Hf-SrbPNDhJqVrpM_YPw-9">
          <mxGeometry width="50" height="50" relative="1" as="geometry">
            <mxPoint x="830" y="210" as="sourcePoint" />
            <mxPoint x="830" y="160" as="targetPoint" />
          </mxGeometry>
        </mxCell>
        <mxCell id="Hf-SrbPNDhJqVrpM_YPw-15" value="" style="endArrow=none;html=1;rounded=0;entryX=0.5;entryY=1;entryDx=0;entryDy=0;exitX=0.5;exitY=0;exitDx=0;exitDy=0;" edge="1" parent="1" source="Hf-SrbPNDhJqVrpM_YPw-10" target="Hf-SrbPNDhJqVrpM_YPw-7">
          <mxGeometry width="50" height="50" relative="1" as="geometry">
            <mxPoint x="130" y="200" as="sourcePoint" />
            <mxPoint x="129.5" y="160" as="targetPoint" />
          </mxGeometry>
        </mxCell>
        <mxCell id="Hf-SrbPNDhJqVrpM_YPw-16" value="&lt;p style=&quot;margin:0px;margin-top:6px;text-align:center;&quot;&gt;&lt;b style=&quot;background-color: initial;&quot;&gt;Avis&lt;/b&gt;&lt;br&gt;&lt;/p&gt;&lt;hr&gt;&lt;p style=&quot;margin:0px;margin-left:8px;&quot;&gt;note&lt;/p&gt;&lt;p style=&quot;margin:0px;margin-left:8px;&quot;&gt;commentaire&lt;/p&gt;&lt;p style=&quot;margin:0px;margin-left:8px;&quot;&gt;dateRedaction&lt;/p&gt;" style="align=left;overflow=fill;html=1;dropTarget=0;glass=1;strokeWidth=1;fillStyle=solid;fillColor=none;" vertex="1" parent="1">
          <mxGeometry x="370" y="215" width="180" height="90" as="geometry" />
        </mxCell>
        <mxCell id="Hf-SrbPNDhJqVrpM_YPw-17" value="" style="endArrow=none;html=1;rounded=0;exitX=0.5;exitY=0;exitDx=0;exitDy=0;entryX=0.5;entryY=1;entryDx=0;entryDy=0;" edge="1" parent="1" source="Hf-SrbPNDhJqVrpM_YPw-16" target="Hf-SrbPNDhJqVrpM_YPw-18">
          <mxGeometry width="50" height="50" relative="1" as="geometry">
            <mxPoint x="1000" y="210" as="sourcePoint" />
            <mxPoint x="830" y="160" as="targetPoint" />
          </mxGeometry>
        </mxCell>
        <mxCell id="Hf-SrbPNDhJqVrpM_YPw-18" value="&lt;p style=&quot;margin:0px;margin-top:6px;text-align:center;&quot;&gt;&lt;b&gt;Commande&lt;/b&gt;&lt;/p&gt;&lt;hr&gt;&lt;p style=&quot;margin:0px;margin-left:8px;&quot;&gt;quantitÃ©&lt;/p&gt;&lt;p style=&quot;margin:0px;margin-left:8px;&quot;&gt;remise&lt;/p&gt;&lt;p style=&quot;margin:0px;margin-left:8px;&quot;&gt;sousTotal&lt;/p&gt;&lt;p style=&quot;margin:0px;margin-left:8px;&quot;&gt;montantTaxe&lt;/p&gt;&lt;p style=&quot;margin:0px;margin-left:8px;&quot;&gt;montantTotal&lt;/p&gt;&lt;p style=&quot;margin:0px;margin-left:8px;&quot;&gt;dateValidation&lt;/p&gt;" style="align=left;overflow=fill;html=1;dropTarget=0;glass=1;fillColor=none;" vertex="1" parent="1">
          <mxGeometry x="370" y="30" width="180" height="130" as="geometry" />
        </mxCell>
        <mxCell id="Hf-SrbPNDhJqVrpM_YPw-20" value="" style="endArrow=none;html=1;rounded=0;exitX=1;exitY=0.5;exitDx=0;exitDy=0;entryX=0;entryY=0.5;entryDx=0;entryDy=0;" edge="1" parent="1">
          <mxGeometry width="50" height="50" relative="1" as="geometry">
            <mxPoint x="550" y="95" as="sourcePoint" />
            <mxPoint x="730" y="95" as="targetPoint" />
          </mxGeometry>
        </mxCell>
        <mxCell id="Hf-SrbPNDhJqVrpM_YPw-21" value="" style="endArrow=none;html=1;rounded=0;exitX=1;exitY=0.5;exitDx=0;exitDy=0;" edge="1" parent="1" source="Hf-SrbPNDhJqVrpM_YPw-7" target="Hf-SrbPNDhJqVrpM_YPw-18">
          <mxGeometry width="50" height="50" relative="1" as="geometry">
            <mxPoint x="220" y="104.5" as="sourcePoint" />
            <mxPoint x="360" y="105" as="targetPoint" />
          </mxGeometry>
        </mxCell>
        <mxCell id="Hf-SrbPNDhJqVrpM_YPw-24" value="&lt;p style=&quot;margin:0px;margin-top:6px;text-align:center;&quot;&gt;&lt;b&gt;Produit&lt;/b&gt;&lt;/p&gt;&lt;hr&gt;&lt;p style=&quot;margin:0px;margin-left:8px;&quot;&gt;nom&lt;/p&gt;&lt;p style=&quot;margin:0px;margin-left:8px;&quot;&gt;IAN&lt;/p&gt;&lt;p style=&quot;margin:0px;margin-left:8px;&quot;&gt;prix&lt;/p&gt;&lt;p style=&quot;margin:0px;margin-left:8px;&quot;&gt;fabriquant&lt;/p&gt;&lt;p style=&quot;margin:0px;margin-left:8px;&quot;&gt;dateEntree&lt;/p&gt;" style="align=left;overflow=fill;html=1;dropTarget=0;glass=1;fillColor=none;" vertex="1" parent="1">
          <mxGeometry x="40" y="640" width="180" height="110" as="geometry" />
        </mxCell>
        <mxCell id="Hf-SrbPNDhJqVrpM_YPw-25" value="&lt;p style=&quot;margin:0px;margin-top:6px;text-align:center;&quot;&gt;&lt;b&gt;Client&lt;/b&gt;&lt;/p&gt;&lt;hr&gt;&lt;p style=&quot;margin:0px;margin-left:8px;&quot;&gt;nom&lt;/p&gt;&lt;p style=&quot;margin:0px;margin-left:8px;&quot;&gt;adressElectronique&lt;/p&gt;&lt;p style=&quot;margin:0px;margin-left:8px;&quot;&gt;mdp&lt;/p&gt;&lt;p style=&quot;margin:0px;margin-left:8px;&quot;&gt;adressePostale&lt;/p&gt;" style="align=left;overflow=fill;html=1;dropTarget=0;glass=1;fillColor=none;" vertex="1" parent="1">
          <mxGeometry x="730" y="640" width="180" height="110" as="geometry" />
        </mxCell>
        <mxCell id="Hf-SrbPNDhJqVrpM_YPw-26" value="&lt;p style=&quot;margin:0px;margin-top:6px;text-align:center;&quot;&gt;&lt;b&gt;&quot;enum&quot;&lt;/b&gt;&lt;/p&gt;&lt;p style=&quot;margin:0px;margin-top:6px;text-align:center;&quot;&gt;&lt;b&gt;Categorie&lt;/b&gt;&lt;/p&gt;&lt;hr&gt;&lt;p style=&quot;margin:0px;margin-left:8px;&quot;&gt;electronique&lt;/p&gt;&lt;p style=&quot;margin:0px;margin-left:8px;&quot;&gt;plastique&lt;/p&gt;&lt;p style=&quot;margin:0px;margin-left:8px;&quot;&gt;textile&lt;/p&gt;&lt;p style=&quot;margin:0px;margin-left:8px;&quot;&gt;bois&lt;/p&gt;" style="align=left;overflow=fill;html=1;dropTarget=0;glass=1;strokeWidth=1;fillStyle=solid;fillColor=none;" vertex="1" parent="1">
          <mxGeometry x="40" y="800" width="180" height="120" as="geometry" />
        </mxCell>
        <mxCell id="Hf-SrbPNDhJqVrpM_YPw-27" value="&lt;p style=&quot;margin:0px;margin-top:6px;text-align:center;&quot;&gt;&lt;b&gt;&quot;enum&quot;&lt;/b&gt;&lt;/p&gt;&lt;p style=&quot;margin:0px;margin-top:6px;text-align:center;&quot;&gt;&lt;b&gt;ClientType&lt;/b&gt;&lt;/p&gt;&lt;hr&gt;&lt;p style=&quot;margin:0px;margin-left:8px;&quot;&gt;ancientClient&lt;/p&gt;&lt;p style=&quot;margin:0px;margin-left:8px;&quot;&gt;moteurDeRecherche&lt;/p&gt;&lt;p style=&quot;margin:0px;margin-left:8px;&quot;&gt;reseauSociaux&lt;/p&gt;&lt;p style=&quot;margin:0px;margin-left:8px;&quot;&gt;partenariats&lt;/p&gt;" style="align=left;overflow=fill;html=1;dropTarget=0;glass=1;strokeWidth=1;fillStyle=solid;fillColor=none;" vertex="1" parent="1">
          <mxGeometry x="730" y="800" width="180" height="120" as="geometry" />
        </mxCell>
        <mxCell id="Hf-SrbPNDhJqVrpM_YPw-28" value="&lt;p style=&quot;margin:0px;margin-top:6px;text-align:center;&quot;&gt;&lt;b&gt;AdressePostale&lt;/b&gt;&lt;/p&gt;&lt;hr&gt;&lt;p style=&quot;margin:0px;margin-left:8px;&quot;&gt;numRue&lt;/p&gt;&lt;p style=&quot;margin:0px;margin-left:8px;&quot;&gt;codePostal&lt;/p&gt;&lt;p style=&quot;margin:0px;margin-left:8px;&quot;&gt;commune&lt;/p&gt;&lt;p style=&quot;margin:0px;margin-left:8px;&quot;&gt;pays&lt;/p&gt;" style="align=left;overflow=fill;html=1;dropTarget=0;glass=1;strokeWidth=1;fillStyle=solid;fillColor=none;" vertex="1" parent="1">
          <mxGeometry x="970" y="635" width="180" height="120" as="geometry" />
        </mxCell>
        <mxCell id="Hf-SrbPNDhJqVrpM_YPw-29" value="" style="endArrow=none;html=1;rounded=0;exitX=0.5;exitY=0;exitDx=0;exitDy=0;entryX=0.5;entryY=1;entryDx=0;entryDy=0;" edge="1" parent="1" source="Hf-SrbPNDhJqVrpM_YPw-27" target="Hf-SrbPNDhJqVrpM_YPw-25">
          <mxGeometry width="50" height="50" relative="1" as="geometry">
            <mxPoint x="780" y="800" as="sourcePoint" />
            <mxPoint x="830" y="750" as="targetPoint" />
          </mxGeometry>
        </mxCell>
        <mxCell id="Hf-SrbPNDhJqVrpM_YPw-30" value="" style="endArrow=none;html=1;rounded=0;exitX=0;exitY=0.5;exitDx=0;exitDy=0;entryX=1;entryY=0.5;entryDx=0;entryDy=0;" edge="1" parent="1" source="Hf-SrbPNDhJqVrpM_YPw-28" target="Hf-SrbPNDhJqVrpM_YPw-25">
          <mxGeometry width="50" height="50" relative="1" as="geometry">
            <mxPoint x="830" y="810" as="sourcePoint" />
            <mxPoint x="830" y="760" as="targetPoint" />
          </mxGeometry>
        </mxCell>
        <mxCell id="Hf-SrbPNDhJqVrpM_YPw-31" value="" style="endArrow=none;html=1;rounded=0;entryX=0.5;entryY=1;entryDx=0;entryDy=0;exitX=0.5;exitY=0;exitDx=0;exitDy=0;" edge="1" parent="1" source="Hf-SrbPNDhJqVrpM_YPw-26" target="Hf-SrbPNDhJqVrpM_YPw-24">
          <mxGeometry width="50" height="50" relative="1" as="geometry">
            <mxPoint x="130" y="800" as="sourcePoint" />
            <mxPoint x="129.5" y="760" as="targetPoint" />
          </mxGeometry>
        </mxCell>
        <mxCell id="Hf-SrbPNDhJqVrpM_YPw-32" value="&lt;p style=&quot;margin:0px;margin-top:6px;text-align:center;&quot;&gt;&lt;b style=&quot;background-color: initial;&quot;&gt;Avis&lt;/b&gt;&lt;br&gt;&lt;/p&gt;&lt;hr&gt;&lt;p style=&quot;margin:0px;margin-left:8px;&quot;&gt;note&lt;/p&gt;&lt;p style=&quot;margin:0px;margin-left:8px;&quot;&gt;commentaire&lt;/p&gt;&lt;p style=&quot;margin:0px;margin-left:8px;&quot;&gt;dateRedaction&lt;/p&gt;" style="align=left;overflow=fill;html=1;dropTarget=0;glass=1;strokeWidth=1;fillStyle=solid;fillColor=none;" vertex="1" parent="1">
          <mxGeometry x="370" y="815" width="180" height="90" as="geometry" />
        </mxCell>
        <mxCell id="Hf-SrbPNDhJqVrpM_YPw-33" value="" style="endArrow=none;html=1;rounded=0;exitX=0.5;exitY=0;exitDx=0;exitDy=0;entryX=0.5;entryY=1;entryDx=0;entryDy=0;" edge="1" parent="1" source="Hf-SrbPNDhJqVrpM_YPw-32" target="Hf-SrbPNDhJqVrpM_YPw-34">
          <mxGeometry width="50" height="50" relative="1" as="geometry">
            <mxPoint x="1000" y="810" as="sourcePoint" />
            <mxPoint x="830" y="760" as="targetPoint" />
          </mxGeometry>
        </mxCell>
        <mxCell id="Hf-SrbPNDhJqVrpM_YPw-34" value="&lt;p style=&quot;margin:0px;margin-top:6px;text-align:center;&quot;&gt;&lt;b&gt;Commande&lt;/b&gt;&lt;/p&gt;&lt;hr&gt;&lt;p style=&quot;margin:0px;margin-left:8px;&quot;&gt;quantitÃ©&lt;/p&gt;&lt;p style=&quot;margin:0px;margin-left:8px;&quot;&gt;remise&lt;/p&gt;&lt;p style=&quot;margin:0px;margin-left:8px;&quot;&gt;sousTotal&lt;/p&gt;&lt;p style=&quot;margin:0px;margin-left:8px;&quot;&gt;montantTaxe&lt;/p&gt;&lt;p style=&quot;margin:0px;margin-left:8px;&quot;&gt;montantTotal&lt;/p&gt;&lt;p style=&quot;margin:0px;margin-left:8px;&quot;&gt;dateValidation&lt;/p&gt;" style="align=left;overflow=fill;html=1;dropTarget=0;glass=1;fillColor=none;" vertex="1" parent="1">
          <mxGeometry x="370" y="630" width="180" height="130" as="geometry" />
        </mxCell>
        <mxCell id="Hf-SrbPNDhJqVrpM_YPw-35" value="" style="endArrow=none;html=1;rounded=0;exitX=1;exitY=0.5;exitDx=0;exitDy=0;entryX=0;entryY=0.5;entryDx=0;entryDy=0;" edge="1" parent="1">
          <mxGeometry width="50" height="50" relative="1" as="geometry">
            <mxPoint x="550" y="695" as="sourcePoint" />
            <mxPoint x="730" y="695" as="targetPoint" />
          </mxGeometry>
        </mxCell>
        <mxCell id="Hf-SrbPNDhJqVrpM_YPw-36" value="" style="endArrow=none;html=1;rounded=0;exitX=1;exitY=0.5;exitDx=0;exitDy=0;" edge="1" parent="1" source="Hf-SrbPNDhJqVrpM_YPw-24" target="Hf-SrbPNDhJqVrpM_YPw-34">
          <mxGeometry width="50" height="50" relative="1" as="geometry">
            <mxPoint x="220" y="704.5" as="sourcePoint" />
            <mxPoint x="360" y="705" as="targetPoint" />
          </mxGeometry>
        </mxCell>
        <mxCell id="Hf-SrbPNDhJqVrpM_YPw-37" value="&lt;p style=&quot;margin:0px;margin-top:6px;text-align:center;&quot;&gt;&lt;b&gt;Commande_Produit&lt;/b&gt;&lt;/p&gt;&lt;hr&gt;&lt;p style=&quot;margin:0px;margin-left:8px;&quot;&gt;&lt;br&gt;&lt;/p&gt;" style="align=left;overflow=fill;html=1;dropTarget=0;glass=1;fillColor=none;" vertex="1" parent="1">
          <mxGeometry x="210" y="530" width="180" height="40" as="geometry" />
        </mxCell>
        <mxCell id="Hf-SrbPNDhJqVrpM_YPw-38" value="" style="endArrow=none;dashed=1;html=1;dashPattern=1 3;strokeWidth=2;rounded=0;entryX=0.5;entryY=1;entryDx=0;entryDy=0;" edge="1" parent="1" target="Hf-SrbPNDhJqVrpM_YPw-37">
          <mxGeometry width="50" height="50" relative="1" as="geometry">
            <mxPoint x="300" y="690" as="sourcePoint" />
            <mxPoint x="670" y="580" as="targetPoint" />
          </mxGeometry>
        </mxCell>
      </root>
    </mxGraphModel>
  </diagram>
</mxfile>
